<mxfile host="app.diagrams.net" agent="Mozilla/5.0 (Windows NT 10.0; Win64; x64) AppleWebKit/537.36 (KHTML, like Gecko) Chrome/130.0.0.0 Safari/537.36" version="26.2.14">
  <diagram name="Página-1" id="JtuFhrA_Mo5zf1j5uX7e">
    <mxGraphModel dx="1426" dy="743" grid="1" gridSize="10" guides="1" tooltips="1" connect="1" arrows="1" fold="1" page="1" pageScale="1" pageWidth="827" pageHeight="1169" math="0" shadow="0">
      <root>
        <mxCell id="0" />
        <mxCell id="1" parent="0" />
        <mxCell id="bnj-BKchQMBdwJmij6cf-3" value="" style="edgeStyle=orthogonalEdgeStyle;rounded=0;orthogonalLoop=1;jettySize=auto;html=1;" edge="1" parent="1" source="6Ix8obwyxkeJ1vYklf1b-1" target="bnj-BKchQMBdwJmij6cf-1">
          <mxGeometry relative="1" as="geometry" />
        </mxCell>
        <mxCell id="6Ix8obwyxkeJ1vYklf1b-1" value="&lt;div&gt;Application Layer&lt;/div&gt;&lt;div&gt;&lt;span style=&quot;background-color: transparent; color: light-dark(rgb(0, 0, 0), rgb(255, 255, 255));&quot;&gt;(Controladores, MVC, Entrada de solicitudes)&lt;/span&gt;&lt;/div&gt;" style="rounded=0;whiteSpace=wrap;html=1;shadow=1;strokeColor=#6666FF;fillColor=#A9C4EB;dashed=1;dashPattern=8 8;" parent="1" vertex="1">
          <mxGeometry x="220" y="150" width="310" height="50" as="geometry" />
        </mxCell>
        <mxCell id="bnj-BKchQMBdwJmij6cf-4" value="" style="edgeStyle=orthogonalEdgeStyle;rounded=0;orthogonalLoop=1;jettySize=auto;html=1;" edge="1" parent="1" source="bnj-BKchQMBdwJmij6cf-1" target="bnj-BKchQMBdwJmij6cf-2">
          <mxGeometry relative="1" as="geometry" />
        </mxCell>
        <mxCell id="bnj-BKchQMBdwJmij6cf-1" value="&lt;div&gt;Domain Model Layer&lt;/div&gt;&lt;div&gt;&lt;span style=&quot;background-color: transparent; color: light-dark(rgb(0, 0, 0), rgb(255, 255, 255));&quot;&gt;(Reglas de negocio, Entidades, Lógica pura)&lt;/span&gt;&lt;/div&gt;" style="rounded=0;whiteSpace=wrap;html=1;shadow=1;dashed=1;dashPattern=8 8;strokeColor=#82b366;align=center;verticalAlign=middle;fontFamily=Helvetica;fontSize=12;fillColor=#d5e8d4;" vertex="1" parent="1">
          <mxGeometry x="220" y="240" width="310" height="50" as="geometry" />
        </mxCell>
        <mxCell id="bnj-BKchQMBdwJmij6cf-2" value="&lt;div&gt;Infrastructure Layer&lt;/div&gt;&lt;div&gt;&lt;span style=&quot;background-color: transparent; color: light-dark(rgb(0, 0, 0), rgb(255, 255, 255));&quot;&gt;(Persistencia de datos, correos, servicios)&amp;nbsp;&lt;/span&gt;&lt;/div&gt;" style="rounded=0;whiteSpace=wrap;html=1;shadow=1;dashed=1;dashPattern=8 8;strokeColor=#b85450;align=center;verticalAlign=middle;fontFamily=Helvetica;fontSize=12;fillColor=#f8cecc;" vertex="1" parent="1">
          <mxGeometry x="220" y="330" width="310" height="50" as="geometry" />
        </mxCell>
      </root>
    </mxGraphModel>
  </diagram>
</mxfile>
